<svg xmlns:xlink="http://www.w3.org/1999/xlink" xmlns="http://www.w3.org/2000/svg" viewBox="0 0 31.94 31.94" width="31.94"  height="31.94" ><g style="isolation:isolate"><g id="f3eb3f3a-1652-4530-a04f-2368fb2d0d7f" data-name="Layer 2"><g id="ae3d4945-3627-484b-a7af-8c11d5a08797" data-name="Layer 1"><g id="acc48d98-2e62-4376-8e06-dab18b9267f5" data-name="Liaising with the bank"><circle cx="15.97" cy="15.97" r="15.97" style="fill:#452a86;mix-blend-mode:multiply;opacity:0.1"/><path d="M24.24,19a.47.47,0,0,0,.46-.46v-.79h.6a.47.47,0,0,0,.46-.47v-1a.47.47,0,0,0-.46-.46h-.83V12.65a1.07,1.07,0,0,0,.25,0,.84.84,0,0,0,.27,0,1,1,0,0,0,.63-.48,1,1,0,0,0,.11-.79,1.07,1.07,0,0,0-.49-.63l-8.71-5A1.06,1.06,0,0,0,16,5.57a1,1,0,0,0-.56.14l-8.71,5a1,1,0,0,0-.38,1.42,1,1,0,0,0,.63.48,1,1,0,0,0,.52,0V15.8H6.64a.47.47,0,0,0-.46.46v1a.47.47,0,0,0,.46.47h.6v.79A.47.47,0,0,0,7.7,19H8v2.8H7.7a.46.46,0,0,0-.46.45v.8h-.6a.46.46,0,0,0-.46.46v1.05a.47.47,0,0,0,.46.46h8.73a.29.29,0,1,0,0-.57H6.75v-.83H25.19v.83h-8.5a.29.29,0,0,0,0,.57H25.3a.47.47,0,0,0,.46-.46V23.54a.46.46,0,0,0-.46-.46h-.6v-.8a.46.46,0,0,0-.46-.45h-.35V19ZM7.45,12a.48.48,0,0,1-.35.05.46.46,0,0,1-.29-.22h0A.46.46,0,0,1,7,11.24l8.72-5a.64.64,0,0,1,.54,0l8.72,5a.46.46,0,0,1,.21.28.47.47,0,0,1,0,.35.49.49,0,0,1-.29.22.48.48,0,0,1-.35-.05L16.11,7.21a.27.27,0,0,0-.28,0Zm-.7,4.34h8.62a.29.29,0,0,0,0-.58H8V12.36L16,7.79l7.93,4.57V15.8H16.65a.29.29,0,0,0,0,.58h8.54v.82H6.75Zm7.44,2.07v-.67h3.56v.67Zm2.75.58v2.8H15V19Zm-9.12-.58v-.67h3.55v.67Zm2.75.58v2.8h-2V19Zm.8,4H7.82V22.4h3.55Zm2.25-.8v.8H12v-.8a.46.46,0,0,0-.46-.45h-.35V19h.35a.47.47,0,0,0,.46-.46v-.79h1.67v.79a.46.46,0,0,0,.45.46h.35v2.8h-.35A.45.45,0,0,0,13.62,22.28Zm4.13.8H14.19V22.4h3.56Zm2.24-.8v.8H18.32v-.8a.45.45,0,0,0-.46-.45h-.34V19h.34a.46.46,0,0,0,.46-.46v-.79H20v.79a.47.47,0,0,0,.46.46h.35v2.8h-.35A.46.46,0,0,0,20,22.28Zm4.13.12v.68H20.57V22.4Zm-2.75-.57V19h1.95v2.8Zm-.8-3.38v-.67h3.55v.67Z" style="fill:#384c58"/><path d="M17.22,10.07A1.21,1.21,0,1,0,16,11.27,1.21,1.21,0,0,0,17.22,10.07Zm-1.84,0a.63.63,0,1,1,.63.63A.63.63,0,0,1,15.38,10.07Z" style="fill:#452a86"/><path d="M12.51,13.37a.81.81,0,0,0-.68-1.23h-.64a.29.29,0,0,0-.29.29v1h0v1.2a.32.32,0,0,0,.08.2.32.32,0,0,0,.21.08H12a.88.88,0,0,0,.88-.89.87.87,0,0,0-.32-.68Zm-.68-.66a.23.23,0,1,1,0,.46h-.36v-.46ZM12,14.37h-.48v-.63H12a.32.32,0,0,1,0,.63Z" style="fill:#452a86"/><path d="M14.82,12.36h0a.33.33,0,0,0-.31-.21h0a.33.33,0,0,0-.31.21h0l-.83,2.19a.28.28,0,0,0,.16.37.28.28,0,0,0,.37-.16L14,14.4h1l.14.36a.28.28,0,0,0,.27.18.2.2,0,0,0,.1,0,.28.28,0,0,0,.16-.37Zm-.57,1.46.26-.68.25.68Z" style="fill:#452a86"/><path d="M18.1,12.14h0a.28.28,0,0,0-.28.29v1.33l-1-1.49a.28.28,0,0,0-.32-.11.29.29,0,0,0-.2.27v2.23a.29.29,0,0,0,.57,0V13.35l1,1.42a.32.32,0,0,0,.58-.19l0-2.16A.29.29,0,0,0,18.1,12.14Z" style="fill:#452a86"/><path d="M21,14.45l-1-1,.92-.84a.29.29,0,0,0,0-.41.3.3,0,0,0-.41,0l-.73.67V12.4a.29.29,0,1,0-.57,0v2.26a.29.29,0,0,0,.57,0v-.58l.81.78a.26.26,0,0,0,.2.08.27.27,0,0,0,.2-.09.28.28,0,0,0,0-.4Z" style="fill:#452a86"/></g></g></g></g></svg>