<svg xmlns:xlink="http://www.w3.org/1999/xlink" xmlns="http://www.w3.org/2000/svg" viewBox="0 0 31.94 31.94" width="145"  height="145" ><g id="b93a2f8f-09f0-4437-b1c2-95402cb53c8d" data-name="Layer 2"><g id="fca5421a-a615-480a-9fb3-3742adb77988" data-name="Layer 1"><g id="af20d22f-64d5-4182-9f84-1cc218e6b06d" data-name="Economic law and competition"><circle cx="15.97" cy="15.97" r="15.97" style="fill:#d12d41;opacity:0.1"/><g id="a0876745-dc88-4b40-b32a-a3c133ea7f48" data-name="partners, handshake, check mark, tick"><path d="M15.38,19.86h-.29a.29.29,0,0,1-.29-.3V17.21a.33.33,0,0,1,.1-.23l1.74-1.44a.26.26,0,0,1,.19-.07H21a.29.29,0,0,1,.29.29.3.3,0,0,1-.29.3h-4l-1.55,1.28v1.93a.87.87,0,0,0,.88-.87v-.3a.29.29,0,0,1,.16-.26l1.17-.58a.29.29,0,1,1,.26.52l-1,.5v.12a1.47,1.47,0,0,1-1.47,1.46Z" style="fill:#384c58"/><path d="M16.18,24.19a1,1,0,0,1-.72-.29l-.23-.23a.3.3,0,0,1,.42-.42l.22.23a.44.44,0,1,0,.62-.62l-.1-.1a.31.31,0,0,1,0-.42.3.3,0,0,1,.41,0l.52.52a.44.44,0,0,0,.62-.62l-.52-.52a.3.3,0,0,1-.08-.2.32.32,0,0,1,.08-.21.31.31,0,0,1,.42,0l.93.93a.44.44,0,0,0,.62,0,.43.43,0,0,0,0-.61l-.93-.94a.29.29,0,1,1,.41-.41l.93.93h0l.4.41a.45.45,0,0,0,.63,0,.44.44,0,0,0,0-.62l-3.3-3.3a.29.29,0,1,1,.41-.41l3.3,3.3a1,1,0,0,1-1.19,1.63,1,1,0,0,1-.26.43,1,1,0,0,1-1.19.19,1,1,0,0,1-.26.43,1,1,0,0,1-1.19.19.94.94,0,0,1-.25.43,1,1,0,0,1-.73.3Z" style="fill:#384c58"/><path d="M13.92,16.06H9.83a.3.3,0,0,1-.29-.3.29.29,0,0,1,.29-.29h4.09a.29.29,0,0,1,.29.29A.3.3,0,0,1,13.92,16.06Z" style="fill:#384c58"/><path d="M9.83,21.32H7.49A.29.29,0,0,1,7.2,21a.3.3,0,0,1,.29-.3h2V15.47h-2a.29.29,0,0,1,0-.58H9.83a.29.29,0,0,1,.29.29V21A.29.29,0,0,1,9.83,21.32Z" style="fill:#384c58"/><path d="M24.45,21.32H22.11a.29.29,0,0,1-.29-.29V15.18a.29.29,0,0,1,.29-.29h2.34a.29.29,0,0,1,0,.58H22.4v5.26h2.05a.3.3,0,0,1,.29.3A.29.29,0,0,1,24.45,21.32Z" style="fill:#384c58"/><path d="M14.29,23.91a.32.32,0,0,1-.21-.08,1,1,0,1,1,1.45-1.45,1,1,0,0,1,.16,1.22.29.29,0,1,1-.5-.28.46.46,0,0,0-.08-.53.44.44,0,0,0-.62.62.29.29,0,0,1,0,.42.3.3,0,0,1-.2.08Z" style="fill:#384c58"/><path d="M13.05,23.08a.28.28,0,0,1-.21-.08,1,1,0,0,1,0-1.45l.21-.21a1.05,1.05,0,0,1,1.44,0,1,1,0,0,1,.3.73,1,1,0,0,1-.3.72.28.28,0,0,1-.41,0,.3.3,0,0,1,0-.41.48.48,0,0,0,.13-.31.44.44,0,0,0-.75-.31l-.21.2a.48.48,0,0,0-.13.31.44.44,0,0,0,.13.31.29.29,0,0,1,0,.42.27.27,0,0,1-.2.08Z" style="fill:#384c58"/><path d="M11.8,22.26a.28.28,0,0,1-.2-.09,1,1,0,0,1-.3-.72,1,1,0,0,1,.3-.72l.41-.42a1.05,1.05,0,0,1,1.45,0,1,1,0,0,1,0,1.45.3.3,0,0,1-.41,0,.29.29,0,0,1,0-.42.43.43,0,0,0,.12-.31.42.42,0,0,0-.12-.3.45.45,0,0,0-.63,0l-.41.41a.43.43,0,0,0,0,.62.28.28,0,0,1,0,.41A.29.29,0,0,1,11.8,22.26Z" style="fill:#384c58"/><path d="M12.22,20.81a.29.29,0,0,1-.21-.09.3.3,0,0,1,0-.41.44.44,0,0,0-.62-.62.46.46,0,0,0-.09.5.28.28,0,0,1-.14.38.29.29,0,0,1-.39-.14,1,1,0,1,1,1.65.29.27.27,0,0,1-.2.09Z" style="fill:#384c58"/><circle cx="15.09" cy="15.76" r="0.29" style="fill:#384c58"/><path d="M16,13.72a3.51,3.51,0,1,1,1.92-6.45.29.29,0,0,1,.08.4.28.28,0,0,1-.4.09,2.92,2.92,0,1,0,1.32,2.45,3.44,3.44,0,0,0,0-.46.28.28,0,0,1,.24-.33.29.29,0,0,1,.34.24,3.31,3.31,0,0,1,0,.55A3.51,3.51,0,0,1,16,13.72Z" style="fill:#d42d41"/><path d="M16,11.38a.29.29,0,0,1-.21-.09L14.3,9.83a.3.3,0,0,1,0-.41.28.28,0,0,1,.41,0L16,10.67l3.3-3.3a.3.3,0,0,1,.41,0,.28.28,0,0,1,0,.41l-3.5,3.51A.3.3,0,0,1,16,11.38Z" style="fill:#d42d41"/><circle cx="23.28" cy="13.42" r="0.29" style="fill:#d42d41"/><circle cx="22.11" cy="13.42" r="0.29" style="fill:#d42d41"/><circle cx="20.94" cy="13.42" r="0.29" style="fill:#d42d41"/><circle cx="11" cy="13.42" r="0.29" style="fill:#d42d41"/><circle cx="9.83" cy="13.42" r="0.29" style="fill:#d42d41"/><circle cx="8.66" cy="13.42" r="0.29" style="fill:#d42d41"/></g></g></g></g></svg>