<svg xmlns="http://www.w3.org/2000/svg" width="1686" height="570" viewBox="0 0 1686 570" fill="none">
<path d="M129.129 16.8906C128.175 16.8906 127.401 17.6638 127.401 18.6175C127.401 19.5711 128.175 20.3442 129.129 20.3442V16.8906ZM1494.83 553.254C1495.79 553.254 1496.56 552.48 1496.56 551.527C1496.56 550.574 1495.79 549.8 1494.83 549.8V553.254ZM129.129 20.3442H133.466V16.8906H129.129V20.3442ZM142.139 20.3442H150.812V16.8906H142.139V20.3442ZM159.485 20.3442H168.159V16.8906H159.485V20.3442ZM176.832 20.3442H185.505V16.8906H176.832V20.3442ZM194.178 20.3442H202.851V16.8906H194.178V20.3442ZM211.525 20.3442H220.198V16.8906H211.525V20.3442ZM228.871 20.3442H237.545V16.8906H228.871V20.3442ZM246.217 20.3442H254.891V16.8906H246.217V20.3442ZM263.565 20.3442H272.237V16.8906H263.565V20.3442ZM280.911 20.3442H289.585V16.8906H280.911V20.3442ZM298.257 20.3442H306.931V16.8906H298.257V20.3442ZM315.605 20.3442H324.277V16.8906H315.605V20.3442ZM332.951 20.3442H341.623V16.8906H332.951V20.3442ZM350.297 20.3442H358.971V16.8906H350.297V20.3442ZM367.643 20.3442H376.317V16.8906H367.643V20.3442ZM384.99 20.3442H393.663V16.8906H384.99V20.3442ZM402.337 20.3442H411.01V16.8906H402.337V20.3442ZM419.683 20.3442H428.356V16.8906H419.683V20.3442ZM437.03 20.3442H445.703V16.8906H437.03V20.3442ZM454.376 20.3442H463.049V16.8906H454.376V20.3442ZM471.722 20.3442H480.396V16.8906H471.722V20.3442ZM489.069 20.3442H497.742V16.8906H489.069V20.3442ZM506.416 20.3442H515.088V16.8906H506.416V20.3442ZM523.762 20.3442H532.436V16.8906H523.762V20.3442ZM541.108 20.3442H549.782V16.8906H541.108V20.3442ZM558.456 20.3442H567.128V16.8906H558.456V20.3442ZM575.802 20.3442H584.476V16.8906H575.802V20.3442ZM593.148 20.3442H601.822V16.8906H593.148V20.3442ZM610.494 20.3442H619.168V16.8906H610.494V20.3442ZM627.842 20.3442H636.514V16.8906H627.842V20.3442ZM645.188 20.3442H653.861V16.8906H645.188V20.3442ZM662.534 20.3442H671.208V16.8906H662.534V20.3442ZM679.881 20.3442H688.554V16.8906H679.881V20.3442ZM697.227 20.3442H705.901V16.8906H697.227V20.3442ZM714.573 20.3442H723.247V16.8906H714.573V20.3442ZM731.92 20.3442H740.593V16.8906H731.92V20.3442ZM749.267 20.3442H757.939V16.8906H749.267V20.3442ZM766.613 20.3442H775.287V16.8906H766.613V20.3442ZM783.959 20.3442H792.633V16.8906H783.959V20.3442ZM801.307 20.3442H809.979V16.8906H801.307V20.3442ZM818.653 20.3442H827.327V16.8906H818.653V20.3442ZM835.999 20.3442H844.673V16.8906H835.999V20.3442ZM853.347 20.3442H862.019V16.8906H853.347V20.3442ZM870.693 20.3442H879.366V16.8906H870.693V20.3442ZM888.039 20.3442H896.712V16.8906H888.039V20.3442ZM905.386 20.3442H914.059V16.8906H905.386V20.3442ZM922.732 20.3442H931.406V16.8906H922.732V20.3442ZM940.078 20.3442H948.752V16.8906H940.078V20.3442ZM957.426 20.3442H966.1V16.8906H957.426V20.3442ZM974.772 20.3442H983.446V16.8906H974.772V20.3442ZM992.119 20.3442H1000.79V16.8906H992.119V20.3442ZM1009.47 20.3442H1018.14V16.8906H1009.47V20.3442ZM1026.81 20.3442H1035.49V16.8906H1026.81V20.3442ZM1044.16 20.3442H1052.83V16.8906H1044.16V20.3442ZM1061.51 20.3442H1070.18V16.8906H1061.51V20.3442ZM1078.85 20.3442H1087.53V16.8906H1078.85V20.3442ZM1096.2 20.3442H1104.87V16.8906H1096.2V20.3442ZM1113.54 20.3442H1122.22V16.8906H1113.54V20.3442ZM1130.89 20.3442H1139.56V16.8906H1130.89V20.3442ZM1148.24 20.3442H1156.91V16.8906H1148.24V20.3442ZM1165.58 20.3442H1174.26V16.8906H1165.58V20.3442ZM1182.93 20.3442H1191.6V16.8906H1182.93V20.3442ZM1200.28 20.3442H1208.95V16.8906H1200.28V20.3442ZM1217.62 20.3442H1226.3V16.8906H1217.62V20.3442ZM1234.97 20.3442H1243.64V16.8906H1234.97V20.3442ZM1252.32 20.3442H1260.99V16.8906H1252.32V20.3442ZM1269.66 20.3442H1278.34V16.8906H1269.66V20.3442ZM1287.01 20.3442H1295.68V16.8906H1287.01V20.3442ZM1304.36 20.3442H1313.04V16.8906H1304.36V20.3442ZM1321.7 20.3442H1330.37V16.8906H1321.7V20.3442ZM1339.05 20.3442H1347.73V16.8906H1339.05V20.3442ZM1356.39 20.3442H1365.07V16.8906H1356.39V20.3442ZM1373.74 20.3442H1382.42V16.8906H1373.74V20.3442ZM1391.1 20.3442H1399.76V16.8906H1391.1V20.3442ZM1408.44 20.3442H1417.11V16.8906H1408.44V20.3442ZM1425.79 20.3442H1434.45V16.8906H1425.79V20.3442ZM1443.13 20.3442H1451.8V16.8906H1443.13V20.3442ZM1460.48 20.3442H1469.14V16.8906H1460.48V20.3442ZM1477.82 20.3442H1486.5V16.8906H1477.82V20.3442ZM1495.17 20.3442H1503.85V16.8906H1495.17V20.3442ZM1512.51 20.3442H1521.19V16.8906H1512.51V20.3442ZM1529.87 20.3442H1538.54V16.8906H1529.87V20.3442ZM1547.2 20.3442H1551.54V16.8906H1547.2V20.3442ZM1551.54 20.3442C1552.98 20.3442 1554.41 20.3674 1555.84 20.4132L1555.95 16.9615C1554.49 16.9145 1553.02 16.8906 1551.54 16.8906V20.3442ZM1564.39 20.9655C1567.26 21.2439 1570.09 21.6143 1572.89 22.0738L1573.46 18.6657C1570.57 18.1941 1567.66 17.8139 1564.73 17.5283L1564.39 20.9655ZM1581.31 23.7366C1584.1 24.3854 1586.86 25.1235 1589.58 25.9479L1590.59 22.6427C1587.79 21.7964 1584.95 21.0387 1582.08 20.3726L1581.31 23.7366ZM1597.7 28.7005C1600.38 29.7099 1603.02 30.8049 1605.62 31.982L1607.05 28.8372C1604.39 27.6288 1601.67 26.5048 1598.92 25.4685L1597.7 28.7005ZM1613.3 35.7755C1615.83 37.1265 1618.31 38.5577 1620.72 40.0655L1622.55 37.1345C1620.06 35.5868 1617.52 34.1178 1614.94 32.7312L1613.3 35.7755ZM1627.85 44.8314C1630.17 46.4982 1632.43 48.2392 1634.65 50.0508L1636.84 47.3825C1634.57 45.5232 1632.25 43.7365 1629.87 42.0259L1627.85 44.8314ZM1641.08 55.7021C1643.18 57.6551 1645.2 59.6754 1647.15 61.7598L1649.67 59.3984C1647.66 57.2595 1645.59 55.1861 1643.46 53.182L1641.08 55.7021ZM1652.8 68.1988C1654.62 70.4036 1656.37 72.6689 1658.03 74.9908L1660.84 72.9769C1659.13 70.5939 1657.34 68.2692 1655.48 66.0064L1652.8 68.1988ZM1662.8 82.1096C1664.31 84.5295 1665.74 87.0023 1667.09 89.5245L1670.14 87.8939C1668.75 85.305 1667.28 82.7669 1665.74 80.2831L1662.8 82.1096ZM1670.89 97.2025C1672.07 99.7962 1673.17 102.435 1674.18 105.116L1677.42 103.899C1676.37 101.147 1675.25 98.4379 1674.03 95.7753L1670.89 97.2025ZM1676.93 113.227C1677.76 115.948 1678.49 118.706 1679.15 121.499L1682.51 120.717C1681.85 117.851 1681.09 115.019 1680.23 112.225L1676.93 113.227ZM1680.81 129.904C1681.27 132.706 1681.64 135.539 1681.91 138.4L1685.36 138.065C1685.07 135.13 1684.69 132.222 1684.22 129.344L1680.81 129.904ZM1682.47 146.943C1682.51 148.369 1682.54 149.801 1682.54 151.236H1686C1686 149.763 1685.97 148.294 1685.92 146.832L1682.47 146.943ZM1682.54 151.236C1682.54 152.673 1682.51 154.104 1682.47 155.53L1685.92 155.641C1685.97 154.179 1686 152.71 1686 151.236H1682.54ZM1681.91 164.073C1681.64 166.933 1681.27 169.767 1680.81 172.569L1684.22 173.129C1684.69 170.251 1685.07 167.343 1685.36 164.408L1681.91 164.073ZM1679.15 180.975C1678.49 183.767 1677.76 186.525 1676.93 189.246L1680.23 190.248C1681.09 187.455 1681.85 184.622 1682.51 181.755L1679.15 180.975ZM1674.18 197.358C1673.17 200.037 1672.07 202.676 1670.89 205.271L1674.03 206.698C1675.25 204.036 1676.37 201.326 1677.42 198.574L1674.18 197.358ZM1667.09 212.949C1665.74 215.471 1664.31 217.944 1662.8 220.364L1665.74 222.189C1667.28 219.706 1668.75 217.168 1670.14 214.579L1667.09 212.949ZM1658.03 227.482C1656.37 229.803 1654.62 232.069 1652.8 234.275L1655.48 236.467C1657.34 234.204 1659.13 231.879 1660.84 229.496L1658.03 227.482ZM1647.15 240.714C1645.2 242.797 1643.18 244.818 1641.08 246.771L1643.46 249.291C1645.59 247.287 1647.66 245.214 1649.67 243.075L1647.15 240.714ZM1634.65 252.422C1632.43 254.234 1630.17 255.975 1627.85 257.642L1629.87 260.447C1632.25 258.737 1634.57 256.949 1636.84 255.091L1634.65 252.422ZM1620.72 262.408C1618.31 263.915 1615.83 265.346 1613.3 266.698L1614.94 269.741C1617.52 268.355 1620.06 266.887 1622.55 265.339L1620.72 262.408ZM1605.62 270.491C1603.02 271.668 1600.38 272.763 1597.7 273.772L1598.92 277.005C1601.67 275.969 1604.39 274.844 1607.05 273.636L1605.62 270.491ZM1589.58 276.525C1586.86 277.349 1584.1 278.088 1581.31 278.736L1582.08 282.1C1584.95 281.435 1587.79 280.677 1590.59 279.831L1589.58 276.525ZM1572.89 280.399C1570.09 280.859 1567.26 281.229 1564.39 281.507L1564.73 284.945C1567.66 284.659 1570.57 284.279 1573.46 283.807L1572.89 280.399ZM1555.84 282.06C1554.41 282.106 1552.98 282.129 1551.54 282.129V285.583C1553.02 285.583 1554.49 285.559 1555.95 285.512L1555.84 282.06ZM1551.54 282.129H1547.23V285.583H1551.54V282.129ZM1538.59 282.129H1529.96V285.583H1538.59V282.129ZM1521.33 282.129H1512.7V285.583H1521.33V282.129ZM1504.06 282.129H1495.42V285.583H1504.06V282.129ZM1486.8 282.129H1478.16V285.583H1486.8V282.129ZM1469.52 282.129H1460.89V285.583H1469.52V282.129ZM1452.26 282.129H1443.63V285.583H1452.26V282.129ZM1434.99 282.129H1426.37V285.583H1434.99V282.129ZM1417.73 282.129H1409.09V285.583H1417.73V282.129ZM1400.45 282.129H1391.83V285.583H1400.45V282.129ZM1383.19 282.129H1374.56V285.583H1383.19V282.129ZM1365.93 282.129H1357.3V285.583H1365.93V282.129ZM1348.66 282.129H1340.02V285.583H1348.66V282.129ZM1331.4 282.129H1322.76V285.583H1331.4V282.129ZM1314.12 282.129H1305.49V285.583H1314.12V282.129ZM1296.86 282.129H1288.23V285.583H1296.86V282.129ZM1279.59 282.129H1270.96V285.583H1279.59V282.129ZM1262.33 282.129H1253.69V285.583H1262.33V282.129ZM1245.06 282.129H1236.43V285.583H1245.06V282.129ZM1227.79 282.129H1219.16V285.583H1227.79V282.129ZM1210.52 282.129H1201.89V285.583H1210.52V282.129ZM1193.26 282.129H1184.62V285.583H1193.26V282.129ZM1175.99 282.129H1167.36V285.583H1175.99V282.129ZM1158.72 282.129H1150.09V285.583H1158.72V282.129ZM1141.46 282.129H1132.82V285.583H1141.46V282.129ZM1124.19 282.129H1115.56V285.583H1124.19V282.129ZM1106.92 282.129H1098.29V285.583H1106.92V282.129ZM1089.66 282.129H1081.02V285.583H1089.66V282.129ZM1072.39 282.129H1063.76V285.583H1072.39V282.129ZM1055.12 282.129H1046.49V285.583H1055.12V282.129ZM1037.86 282.129H1029.22V285.583H1037.86V282.129ZM1020.59 282.129H1011.96V285.583H1020.59V282.129ZM1003.32 282.129H994.691V285.583H1003.32V282.129ZM986.056 282.129H977.423V285.583H986.056V282.129ZM968.79 282.129H960.157V285.583H968.79V282.129ZM951.523 282.129H942.89V285.583H951.523V282.129ZM934.257 282.129H925.624V285.583H934.257V282.129ZM916.99 282.129H908.356V285.583H916.99V282.129ZM899.723 282.129H891.09V285.583H899.723V282.129ZM882.457 282.129H873.822V285.583H882.457V282.129ZM865.189 282.129H856.556V285.583H865.189V282.129ZM847.923 282.129H839.29V285.583H847.923V282.129ZM830.656 282.129H822.023V285.583H830.656V282.129ZM813.389 282.129H804.756V285.583H813.389V282.129ZM796.123 282.129H787.489V285.583H796.123V282.129ZM778.856 282.129H770.223V285.583H778.856V282.129ZM761.59 282.129H752.955V285.583H761.59V282.129ZM744.322 282.129H735.689V285.583H744.322V282.129ZM727.056 282.129H718.423V285.583H727.056V282.129ZM709.788 282.129H701.155V285.583H709.788V282.129ZM692.522 282.129H683.889V285.583H692.522V282.129ZM675.255 282.129H666.622V285.583H675.255V282.129ZM657.989 282.129H649.355V285.583H657.989V282.129ZM640.722 282.129H632.088V285.583H640.722V282.129ZM623.455 282.129H614.822V285.583H623.455V282.129ZM606.189 282.129H597.554V285.583H606.189V282.129ZM588.921 282.129H580.288V285.583H588.921V282.129ZM571.655 282.129H563.022V285.583H571.655V282.129ZM554.387 282.129H545.754V285.583H554.387V282.129ZM537.121 282.129H528.488V285.583H537.121V282.129ZM519.854 282.129H511.221V285.583H519.854V282.129ZM502.588 282.129H493.955V285.583H502.588V282.129ZM485.321 282.129H476.687V285.583H485.321V282.129ZM468.054 282.129H459.421V285.583H468.054V282.129ZM450.788 282.129H442.155V285.583H450.788V282.129ZM433.52 282.129H424.887V285.583H433.52V282.129ZM416.254 282.129H407.621V285.583H416.254V282.129ZM398.987 282.129H390.354V285.583H398.987V282.129ZM381.72 282.129H373.087V285.583H381.72V282.129ZM364.454 282.129H355.82V285.583H364.454V282.129ZM347.187 282.129H338.554V285.583H347.187V282.129ZM329.921 282.129H321.286V285.583H329.921V282.129ZM312.653 282.129H304.02V285.583H312.653V282.129ZM295.387 282.129H286.754V285.583H295.387V282.129ZM278.119 282.129H269.486V285.583H278.119V282.129ZM260.853 282.129H252.22V285.583H260.853V282.129ZM243.586 282.129H234.953V285.583H243.586V282.129ZM226.32 282.129H217.686V285.583H226.32V282.129ZM209.053 282.129H200.419V285.583H209.053V282.129ZM191.786 282.129H183.153V285.583H191.786V282.129ZM174.518 282.129H165.885V285.583H174.518V282.129ZM157.252 282.129H148.619V285.583H157.252V282.129ZM139.985 282.129H135.667V285.583H139.985V282.129ZM135.667 282.129C134.179 282.129 132.696 282.153 131.219 282.2L131.331 285.652C132.771 285.606 134.217 285.583 135.667 285.583V282.129ZM122.367 282.772C119.402 283.06 116.466 283.444 113.56 283.919L114.119 287.328C116.95 286.865 119.812 286.49 122.701 286.21L122.367 282.772ZM104.848 285.643C101.953 286.315 99.0934 287.079 96.2726 287.933L97.2748 291.237C100.023 290.406 102.809 289.661 105.63 289.006L104.848 285.643ZM87.8639 290.784C85.0849 291.829 82.3494 292.965 79.6607 294.184L81.089 297.328C83.7088 296.141 86.3742 295.035 89.082 294.016L87.8639 290.784ZM71.7018 298.113C69.0873 299.512 66.5244 300.994 64.0161 302.556L65.8439 305.487C68.2884 303.966 70.786 302.521 73.3336 301.158L71.7018 298.113ZM56.6381 307.491C54.2315 309.218 51.8839 311.02 49.5988 312.897L51.793 315.565C54.0201 313.737 56.3082 311.979 58.6536 310.298L56.6381 307.491ZM42.9259 318.748C40.766 320.771 38.6722 322.863 36.6483 325.022L39.1703 327.383C41.1431 325.28 43.1839 323.24 45.2891 321.27L42.9259 318.748ZM30.7918 331.689C28.9143 333.973 27.1099 336.318 25.3825 338.723L28.1902 340.737C29.8738 338.394 31.6323 336.107 33.4622 333.881L30.7918 331.689ZM20.4431 346.096C18.88 348.601 17.3966 351.163 15.9964 353.775L19.043 355.406C20.4075 352.86 21.8532 350.364 23.3764 347.921L20.4431 346.096ZM12.064 361.727C10.8438 364.415 9.70873 367.148 8.66223 369.924L11.8967 371.142C12.9164 368.437 14.0223 365.773 15.2113 363.155L12.064 361.727ZM5.80862 378.327C4.95402 381.145 4.18878 384.003 3.51625 386.896L6.88281 387.677C7.53811 384.859 8.2837 382.075 9.11637 379.329L5.80862 378.327ZM1.7925 395.601C1.31626 398.504 0.932348 401.439 0.643853 404.401L4.08381 404.735C4.36498 401.849 4.73913 398.989 5.20321 396.16L1.7925 395.601ZM0.0715444 413.248C0.0239687 414.722 0 416.205 0 417.691H3.45622C3.45622 416.241 3.47959 414.797 3.52597 413.359L0.0715444 413.248ZM0 417.691C0 419.179 0.0239674 420.66 0.0715431 422.136L3.52597 422.025C3.47959 420.585 3.45622 419.141 3.45622 417.691H0ZM0.64384 430.982C0.932334 433.943 1.31626 436.878 1.79249 439.782L5.20319 439.222C4.73913 436.394 4.36498 433.535 4.08381 430.647L0.64384 430.982ZM3.51623 448.487C4.18877 451.38 4.954 454.237 5.80861 457.055L9.11635 456.055C8.28369 453.309 7.5381 450.524 6.8828 447.705L3.51623 448.487ZM8.66221 465.458C9.7087 468.234 10.8438 470.969 12.064 473.655L15.2113 472.227C14.0223 469.609 12.9164 466.947 11.8967 464.241L8.66221 465.458ZM15.9964 481.608C17.3966 484.219 18.88 486.781 20.4431 489.288L23.3764 487.461C21.8532 485.018 20.4075 482.522 19.043 479.978L15.9964 481.608ZM25.3824 496.659C27.1099 499.064 28.9143 501.409 30.7918 503.693L33.4622 501.501C31.6323 499.276 29.8738 496.989 28.1902 494.645L25.3824 496.659ZM36.6483 510.361C38.6722 512.519 40.7659 514.612 42.9259 516.634L45.2891 514.114C43.1837 512.143 41.1429 510.104 39.1703 507.999L36.6483 510.361ZM49.5988 522.486C51.8839 524.362 54.2315 526.165 56.6379 527.891L58.6536 525.086C56.3082 523.403 54.0201 521.646 51.793 519.817L49.5988 522.486ZM64.016 532.827C66.5243 534.388 69.0873 535.871 71.7016 537.269L73.3335 534.226C70.786 532.862 68.2882 531.418 65.8439 529.896L64.016 532.827ZM79.6607 541.199C82.3493 542.419 85.0848 543.553 87.8639 544.598L89.0818 541.366C86.3742 540.347 83.7088 539.243 81.089 538.054L79.6607 541.199ZM96.2726 547.45C99.0933 548.304 101.953 549.069 104.848 549.741L105.63 546.376C102.809 545.722 100.023 544.976 97.2747 544.145L96.2726 547.45ZM113.56 551.463C116.466 551.938 119.402 552.322 122.366 552.61L122.701 549.174C119.812 548.892 116.95 548.519 114.119 548.055L113.56 551.463ZM131.219 553.182C132.696 553.23 134.179 553.254 135.667 553.254V549.8C134.217 549.8 132.771 549.777 131.331 549.73L131.219 553.182ZM135.667 553.254H139.969V549.8H135.667V553.254ZM148.571 553.254H157.174V549.8H148.571V553.254ZM165.775 553.254H174.378V549.8H165.775V553.254ZM182.98 553.254H191.583V549.8H182.98V553.254ZM200.184 553.254H208.787V549.8H200.184V553.254ZM217.389 553.254H225.992V549.8H217.389V553.254ZM234.594 553.254H243.196V549.8H234.594V553.254ZM251.798 553.254H260.401V549.8H251.798V553.254ZM269.003 553.254H277.606V549.8H269.003V553.254ZM286.207 553.254H294.81V549.8H286.207V553.254ZM303.413 553.254H312.015V549.8H303.413V553.254ZM320.618 553.254H329.219V549.8H320.618V553.254ZM337.822 553.254H346.424V549.8H337.822V553.254ZM355.027 553.254H363.629V549.8H355.027V553.254ZM372.231 553.254H380.833V549.8H372.231V553.254ZM389.436 553.254H398.038V549.8H389.436V553.254ZM406.641 553.254H415.242V549.8H406.641V553.254ZM423.845 553.254H432.447V549.8H423.845V553.254ZM441.05 553.254H449.651V549.8H441.05V553.254ZM458.254 553.254H466.856V549.8H458.254V553.254ZM475.459 553.254H484.062V549.8H475.459V553.254ZM492.664 553.254H501.267V549.8H492.664V553.254ZM509.868 553.254H518.471V549.8H509.868V553.254ZM527.073 553.254H535.676V549.8H527.073V553.254ZM544.277 553.254H552.88V549.8H544.277V553.254ZM561.482 553.254H570.085V549.8H561.482V553.254ZM578.687 553.254H587.289V549.8H578.687V553.254ZM595.892 553.254H604.494V549.8H595.892V553.254ZM613.097 553.254H621.699V549.8H613.097V553.254ZM630.302 553.254H638.903V549.8H630.302V553.254ZM647.506 553.254H656.108V549.8H647.506V553.254ZM664.711 553.254H673.312V549.8H664.711V553.254ZM681.915 553.254H690.517V549.8H681.915V553.254ZM699.12 553.254H707.723V549.8H699.12V553.254ZM716.324 553.254H724.927V549.8H716.324V553.254ZM733.529 553.254H742.132V549.8H733.529V553.254ZM750.734 553.254H759.337V549.8H750.734V553.254ZM767.938 553.254H776.541V549.8H767.938V553.254ZM785.143 553.254H793.746V549.8H785.143V553.254ZM802.347 553.254H810.95V549.8H802.347V553.254ZM819.553 553.254H828.155V549.8H819.553V553.254ZM836.758 553.254H845.359V549.8H836.758V553.254ZM853.962 553.254H862.564V549.8H853.962V553.254ZM871.167 553.254H879.769V549.8H871.167V553.254ZM888.372 553.254H896.973V549.8H888.372V553.254ZM905.576 553.254H914.178V549.8H905.576V553.254ZM922.781 553.254H931.384V549.8H922.781V553.254ZM939.985 553.254H948.588V549.8H939.985V553.254ZM957.19 553.254H965.793V549.8H957.19V553.254ZM974.395 553.254H982.997V549.8H974.395V553.254ZM991.599 553.254H1000.2V549.8H991.599V553.254ZM1008.8 553.254H1017.41V549.8H1008.8V553.254ZM1026.01 553.254H1034.61V549.8H1026.01V553.254ZM1043.21 553.254H1051.82V549.8H1043.21V553.254ZM1060.42 553.254H1069.02V549.8H1060.42V553.254ZM1077.62 553.254H1086.23V549.8H1077.62V553.254ZM1094.83 553.254H1103.43V549.8H1094.83V553.254ZM1112.03 553.254H1120.63V549.8H1112.03V553.254ZM1129.24 553.254H1137.84V549.8H1129.24V553.254ZM1146.44 553.254H1155.04V549.8H1146.44V553.254ZM1163.65 553.254H1172.25V549.8H1163.65V553.254ZM1180.85 553.254H1189.45V549.8H1180.85V553.254ZM1198.06 553.254H1206.66V549.8H1198.06V553.254ZM1215.26 553.254H1223.86V549.8H1215.26V553.254ZM1232.46 553.254H1241.07V549.8H1232.46V553.254ZM1249.67 553.254H1258.27V549.8H1249.67V553.254ZM1266.87 553.254H1275.48V549.8H1266.87V553.254ZM1284.08 553.254H1292.68V549.8H1284.08V553.254ZM1301.28 553.254H1309.89V549.8H1301.28V553.254ZM1318.49 553.254H1327.09V549.8H1318.49V553.254ZM1335.7 553.254H1344.29V549.8H1335.7V553.254ZM1352.89 553.254H1361.5V549.8H1352.89V553.254ZM1370.1 553.254H1378.71V549.8H1370.1V553.254ZM1387.31 553.254H1395.91V549.8H1387.31V553.254ZM1404.52 553.254H1413.11V549.8H1404.52V553.254ZM1421.71 553.254H1430.32V549.8H1421.71V553.254ZM1438.92 553.254H1447.52V549.8H1438.92V553.254ZM1456.13 553.254H1464.73V549.8H1456.13V553.254ZM1473.32 553.254H1481.94V549.8H1473.32V553.254ZM1490.53 553.254H1494.83V549.8H1490.53V553.254Z" fill="#C8C6C6"/>
<path d="M460.454 17.89L431.488 34.8699V0.910156L460.454 17.89Z" fill="#092f53"/>
<path d="M459.455 552.756L430.489 569.236V536.275L459.455 552.756Z" fill="#092f53"/>
<path d="M1234.54 17.89L1203.57 34.8699V0.910156L1234.54 17.89Z" fill="#092f53"/>
<path d="M1229.54 552.756L1200.58 569.236V536.275L1229.54 552.756Z" fill="#092f53"/>
<path d="M848.993 17.89L820.027 34.8699V0.910156L848.993 17.89Z" fill="#092f53"/>
<path d="M845.997 552.756L817.031 569.236V536.275L845.997 552.756Z" fill="#092f53"/>
<path d="M1573.13 17.89L1544.17 34.8699V0.910156L1573.13 17.89Z" fill="#092f53"/>
<path d="M791.598 290.977C795.091 290.262 800.773 290.408 807.725 286.466C817.398 280.972 822.46 266.053 827.666 259.411C832.873 252.768 846.974 244.048 852.592 228.808C852.572 230.733 852.011 238.716 848.625 249.194C844.688 261.413 835.389 268.081 835.389 268.081C835.389 268.081 839.572 267.625 843.444 262.921C839.503 278.058 822.676 285.517 822.676 285.517C822.676 285.517 832.772 282.694 834.257 281.356C832.97 290.158 819.922 295.598 819.922 295.598C819.922 295.598 837.819 296.092 855.865 286.476C855.224 288.238 852.48 291.654 847.288 295.97C854.332 295.125 861.595 293.104 867.334 288.89C866.879 290.914 853.518 309.792 828.229 311.555C807.941 312.966 796.191 301.041 796.191 301.041C794.525 299.381 792.272 298.433 789.913 298.406C787.126 298.406 785.316 298.566 785.316 298.566C785.316 298.566 785.471 292.234 791.611 290.977H791.598ZM810.126 287.082C819.416 282.046 824.512 267.973 829.596 261.752C833.972 256.381 842.475 249.788 848.938 238.834C845.066 244.732 832.92 255.411 827.973 261.727C823.026 268.045 818.217 282.211 809.023 287.433C807.158 288.506 805.374 289.388 803.697 290.158C805.898 289.245 808.048 288.218 810.14 287.082H810.126ZM791.128 295.523C791.961 295.285 792.419 294.512 792.304 294.116C792.188 293.718 791.421 293.585 790.587 293.825C789.755 294.064 789.17 294.577 789.286 294.975C789.401 295.372 790.296 295.755 791.128 295.523Z" fill="#092f53"/>
</svg>