<svg xmlns:xlink="http://www.w3.org/1999/xlink" xmlns="http://www.w3.org/2000/svg" viewBox="0 0 31.94 31.94" width="145"  height="145" ><g id="b6fb1f4c-c6f0-440e-b5f5-6f53d236c7b4" data-name="Layer 2"><g id="b0866edb-ed9d-4486-8671-2782455518fb" data-name="Layer 1"><g id="e708aed9-0934-4c06-93ef-f98d17f58ec7" data-name="Dispute resolution"><circle cx="15.97" cy="15.97" r="15.97" style="fill:#d12d41;opacity:0.1"/><path d="M12.88,18.28a.27.27,0,0,1-.21-.09L9.79,15.32a.33.33,0,0,1-.09-.23.29.29,0,0,1,.1-.22l2.88-2.59a.31.31,0,0,1,.33,0,.32.32,0,0,1,.19.28v.76H15a.31.31,0,0,1,.31.31v.26a.31.31,0,0,1-.3.32.32.32,0,0,1-.32-.27H12.88a.27.27,0,0,1-.21-.09.32.32,0,0,1-.1-.22v-.37l-2.11,1.9,2.11,2.11v-.61a.32.32,0,0,1,.1-.22.27.27,0,0,1,.21-.09h1.83V16a.31.31,0,0,1,.62,0v.6a.29.29,0,0,1-.09.22.31.31,0,0,1-.22.09H13.2v1a.33.33,0,0,1-.19.29ZM15,15.08a.31.31,0,1,1,.31-.31A.31.31,0,0,1,15,15.08Z" style="fill:#d42d41"/><path d="M19.05,18.28l-.12,0a.33.33,0,0,1-.19-.29v-1H16.92a.31.31,0,0,1-.31-.31v-3a.31.31,0,0,1,.31-.31h1.82v-.76a.31.31,0,0,1,.31-.31.32.32,0,0,1,.21.08l2.88,2.59a.29.29,0,0,1,.1.22.33.33,0,0,1-.09.23l-.72.71A.3.3,0,0,1,21,16a.31.31,0,0,1,0-.44l.48-.48-2.12-1.9v.37a.31.31,0,0,1-.09.22.29.29,0,0,1-.22.09H17.23V16.3h1.82a.28.28,0,0,1,.22.09.31.31,0,0,1,.09.22v.61l.1-.1a.33.33,0,0,1,.44,0,.33.33,0,0,1,0,.45l-.63.62A.29.29,0,0,1,19.05,18.28Z" style="fill:#d42d41"/><path d="M16,23.11h-3v-2a.33.33,0,0,0-.1-.23.31.31,0,0,0-.24-.08l-3.13.3V18.54a.34.34,0,0,0-.16-.28l-1.72-.94,1-1.51a.29.29,0,0,0,0-.26,5.28,5.28,0,0,1,0-3.22.3.3,0,0,0,0-.23.31.31,0,0,0-.57,0,5.91,5.91,0,0,0-.06,3.46L7,17.26a.31.31,0,0,0,0,.25.32.32,0,0,0,.15.19l1.84,1V21.4a.3.3,0,0,0,.11.23.3.3,0,0,0,.24.08l3.13-.3v2a.32.32,0,0,0,.3.31H16a.32.32,0,0,0,0-.63Z" style="fill:#384c58"/><path d="M24.93,17.26,23.85,15.6A6,6,0,0,0,24.08,14a5.81,5.81,0,0,0-1.65-4.08,5.51,5.51,0,0,0-4-1.69A5.39,5.39,0,0,0,16,8.81a5.42,5.42,0,0,0-2.49-.61,5.58,5.58,0,0,0-4.21,2,.31.31,0,0,0,0,.44h0a.32.32,0,0,0,.44,0,4.94,4.94,0,0,1,3.74-1.74,4.81,4.81,0,0,1,2.34.61h0a5.12,5.12,0,0,1,2,2.07.31.31,0,0,0,.27.17.42.42,0,0,0,.15,0,.31.31,0,0,0,.13-.42,5,5,0,0,0-1.78-2,5,5,0,0,1,1.83-.36,5.09,5.09,0,0,1,5,5.15,5,5,0,0,1-.25,1.58.33.33,0,0,0,0,.26l1,1.51-1.72.94a.32.32,0,0,0-.16.28v2.52l-3.13-.3a.32.32,0,0,0-.34.28v2.07h-.66a.32.32,0,1,0,0,.63h1a.36.36,0,0,0,.22-.09.31.31,0,0,0,.09-.22v-2l3.13.3a.3.3,0,0,0,.24-.08.29.29,0,0,0,.1-.23V18.72l1.85-1a.32.32,0,0,0,.15-.19A.31.31,0,0,0,24.93,17.26Z" style="fill:#384c58"/><circle cx="17.28" cy="23.43" r="0.31" style="fill:#384c58"/><circle cx="20.34" cy="16.69" r="0.31" style="fill:#d42d41"/></g></g></g></svg>