<svg xmlns:xlink="http://www.w3.org/1999/xlink" xmlns="http://www.w3.org/2000/svg" viewBox="0 0 31.94 31.94" width="31.94"  height="31.94" ><g style="isolation:isolate"><g id="b6cea5a2-0672-425f-b688-3c3491472bbd" data-name="Layer 2"><g id="ab9bf747-dae9-45c6-b4e1-928a59d0ff3c" data-name="Layer 1"><g id="bb3f3c6c-2943-4281-bbb1-31e9b2f975fa" data-name="Client assessment"><circle cx="15.97" cy="15.97" r="15.97" style="fill:#452a86;mix-blend-mode:multiply;opacity:0.1"/><path d="M14.47,12.54a2.32,2.32,0,0,0-1.67.69,2.35,2.35,0,0,0,0,3.35,2.32,2.32,0,0,0,1.67.69,2.37,2.37,0,0,0,1.27-.36.27.27,0,0,0,.08-.35.26.26,0,0,0-.35-.08,1.85,1.85,0,0,1-1,.29,1.82,1.82,0,0,1-1.32-.55,1.87,1.87,0,0,1,2.64-2.64,1.88,1.88,0,0,1,.37,2.11.25.25,0,0,0,.46.22,2.36,2.36,0,0,0-2.15-3.37Z" style="fill:#452a86"/><path d="M22.54,7.4H17.91a1.28,1.28,0,0,0-1.28,1.28v3.63a3.33,3.33,0,0,0-2.16-.78,3.33,3.33,0,0,0-3.13,2.11H9.25A.63.63,0,0,1,8.62,13V9.8h6.21v.82a.25.25,0,0,0,.5,0V8.51h0a1.13,1.13,0,0,0-1.12-1.13h-5A1.14,1.14,0,0,0,8.12,8.51V13a1.13,1.13,0,0,0,1.13,1.13h1.93a3.39,3.39,0,0,0,.9,3.15l.16.15H8.62v-.8A.63.63,0,0,1,9.25,16h1a.25.25,0,0,0,0-.5h-1a1.15,1.15,0,0,0-1.13,1.12v6.79a1.13,1.13,0,0,0,1.13,1.12h5a1.12,1.12,0,0,0,1.12-1.12V18.17a3.38,3.38,0,0,0,1.35-.71l.6.61h0a.94.94,0,0,0,0,1.32l1.14,1.14a.91.91,0,0,0,.66.27.94.94,0,0,0,.67-.27l.37-.37a1,1,0,0,0,0-1.33L19,17.71a.92.92,0,0,0-.66-.28,1,1,0,0,0-.67.28h0l-.61-.6a3.36,3.36,0,0,0,.82-2.21,3.31,3.31,0,0,0-.09-.77h.82v1.23a.53.53,0,0,0,1,.28l.95-1.51h2a1.27,1.27,0,0,0,1.28-1.27V8.68A1.28,1.28,0,0,0,22.54,7.4Zm-8.33.49a.62.62,0,0,1,.62.62V9.3H8.62V8.51a.63.63,0,0,1,.63-.62Zm4.1,10a.48.48,0,0,1,.31.13l1.13,1.14a.44.44,0,0,1,.13.31.43.43,0,0,1-.13.3l-.37.37a.44.44,0,0,1-.31.13.48.48,0,0,1-.31-.13l-1.13-1.13a.43.43,0,0,1,0-.62l.37-.37a.44.44,0,0,1,.31-.13Zm-3.48,5.5a.62.62,0,0,1-.62.62h-5a.63.63,0,0,1-.63-.62V17.94H13a3.37,3.37,0,0,0,1.84.32v5.17Zm1.67-6.49a2.88,2.88,0,1,1,0-4.07A2.87,2.87,0,0,1,16.5,16.94Zm6.81-4.07a.77.77,0,0,1-.77.77H20.37a.25.25,0,0,0-.22.12l-1,1.62a0,0,0,0,1,0,0V12.88a.25.25,0,0,0-.5,0v.76h-.67a.81.81,0,0,1-.34-.08,3.29,3.29,0,0,0-.44-.74V8.68a.78.78,0,0,1,.78-.78h4.63a.77.77,0,0,1,.77.78v4.19Z" style="fill:#384c58"/><path d="M20.21,12.57a.26.26,0,1,0,.25.26A.26.26,0,0,0,20.21,12.57Z" style="fill:#384c58"/><path d="M20.23,8.28a1.33,1.33,0,0,0-1.34,1.15,1.09,1.09,0,0,0,0,.18.25.25,0,0,0,.5,0,.37.37,0,0,1,0-.11.82.82,0,1,1,.82.94.26.26,0,0,0-.26.25v1.12a.26.26,0,0,0,.51,0v-.9a1.32,1.32,0,0,0,1.07-1.37,1.33,1.33,0,0,0-1.3-1.26Z" style="fill:#452a86"/><path d="M9.64,8.86a.26.26,0,1,0-.26-.26A.26.26,0,0,0,9.64,8.86Z" style="fill:#384c58"/><path d="M9.38,16.7a.26.26,0,1,0,.26-.25A.26.26,0,0,0,9.38,16.7Z" style="fill:#384c58"/><path d="M13.71,19.39H9.64a.25.25,0,0,0,0,.5h4.07a.25.25,0,0,0,0-.5Z" style="fill:#384c58"/><path d="M13.71,20.79H9.64a.26.26,0,0,0-.25.26.25.25,0,0,0,.25.25h4.07a.25.25,0,0,0,.25-.25.26.26,0,0,0-.25-.26Z" style="fill:#384c58"/><path d="M12.81,22.2H10.48a.25.25,0,0,0,0,.5h2.33a.25.25,0,0,0,0-.5Z" style="fill:#384c58"/></g></g></g></g></svg>