<svg xmlns:xlink="http://www.w3.org/1999/xlink" xmlns="http://www.w3.org/2000/svg" viewBox="0 0 31.94 31.94" width="31.94"  height="31.94" ><g style="isolation:isolate"><g id="e50b1321-a8a8-4e57-b1a0-91783a21b80d" data-name="Layer 2"><g id="e8a1177f-94a8-472b-bd83-785cc5dfcce5" data-name="Layer 1"><g id="fb534d4d-6f28-42f2-8458-2329ae86116f" data-name="Documentation"><circle cx="15.97" cy="15.97" r="15.97" style="fill:#452a86;mix-blend-mode:multiply;opacity:0.1"/><path d="M17.73,17.6H11a.27.27,0,1,0,0,.53h6.71a.27.27,0,1,0,0-.53Z" style="fill:#384c58"/><path d="M15.65,18.86H11a.27.27,0,0,0,0,.54h4.63a.27.27,0,0,0,0-.54Z" style="fill:#384c58"/><path d="M23.45,12.31a.27.27,0,0,0,.27-.27V9.61a.27.27,0,0,0-.27-.27H20.4V7.07a.27.27,0,0,0-.27-.27H8.49a.27.27,0,0,0-.27.27V16.3a.27.27,0,1,0,.54,0v-9h11.1V19.76h-2a.27.27,0,0,0-.27.27v2H8.76V17.38a.27.27,0,1,0-.54,0v4.95a.27.27,0,0,0,.27.27h3v2.27a.27.27,0,0,0,.27.27h9.51l0,0,2.3-2.3,0,0h0s0,0,0,0h0s0,0,0,0h0a.06.06,0,0,0,0,0h0s0,0,0,0h0V13.12a.27.27,0,0,0-.54,0V22.3h-2a.27.27,0,0,0-.27.27v2h-8.8v-2H18l0,0,2.3-2.3,0,0h0l0,0h0s0,0,0,0h0s0,0,0,0h0a0,0,0,0,0,0,0h0V9.88h2.78V12A.27.27,0,0,0,23.45,12.31Zm-2,10.53H22.8l-1.38,1.38ZM18.1,21.68V20.3h1.38Z" style="fill:#384c58"/><path d="M16.22,11.24a.71.71,0,0,0-1,0L13.6,12.82l-.53-.53a.73.73,0,0,0-.52-.21.72.72,0,0,0-.52.21.74.74,0,0,0,0,1l1.05,1.06a.78.78,0,0,0,.52.21.76.76,0,0,0,.52-.21l2.1-2.11a.71.71,0,0,0,0-1Zm-.38.65L13.74,14a.22.22,0,0,1-.28,0l-1.05-1.06a.2.2,0,0,1,0-.27.19.19,0,0,1,.28,0l.72.73a.29.29,0,0,0,.38,0l1.78-1.78a.16.16,0,0,1,.13-.06.21.21,0,0,1,.2.2A.16.16,0,0,1,15.84,11.89Z" style="fill:#452a86"/><path d="M14.13,8.8a4,4,0,0,0-2.29.73.27.27,0,0,0-.06.38.26.26,0,0,0,.37.06,3.42,3.42,0,1,1-.72.69.26.26,0,0,0,0-.37.28.28,0,0,0-.38,0A4,4,0,1,0,14.13,8.8Z" style="fill:#452a86"/></g></g></g></g></svg>