<svg xmlns:xlink="http://www.w3.org/1999/xlink" xmlns="http://www.w3.org/2000/svg" viewBox="0 0 31.94 31.94" width="145"  height="145" ><g id="ec757041-5a22-4cb9-a3c4-779d13cda71e" data-name="Layer 2"><g id="a23820d6-b2a8-4f22-9cf4-ba9e4fd1593e" data-name="Layer 1"><g id="b15401f2-3ed7-4f8c-ba28-78cecdc00822" data-name="Mergers and acquisitions"><circle cx="15.97" cy="15.97" r="15.97" style="fill:#d12d41;opacity:0.1"/><path d="M17.71,14.67a.2.2,0,0,0-.21.2V15a.21.21,0,1,0,.41,0v-.11A.2.2,0,0,0,17.71,14.67Z" style="fill:#d42d41"/><path d="M17.71,15.49a.2.2,0,0,0-.21.2v.24a.21.21,0,1,0,.41,0v-.24A.2.2,0,0,0,17.71,15.49Z" style="fill:#d42d41"/><path d="M17.71,16.44a.2.2,0,0,0-.21.2v.24a.21.21,0,1,0,.41,0v-.24A.2.2,0,0,0,17.71,16.44Z" style="fill:#d42d41"/><path d="M17.71,17.39a.2.2,0,0,0-.19.13.19.19,0,0,0-.13.18.21.21,0,0,0,.21.21h.11a.2.2,0,0,0,.2-.21v-.11A.2.2,0,0,0,17.71,17.39Z" style="fill:#d42d41"/><path d="M16.9,17.5h-.23a.2.2,0,0,0-.21.2.21.21,0,0,0,.21.21h.23a.2.2,0,0,0,.2-.21A.2.2,0,0,0,16.9,17.5Z" style="fill:#d42d41"/><path d="M16,17.5h-.23a.2.2,0,0,0-.21.2.21.21,0,0,0,.21.21H16a.2.2,0,0,0,.2-.21A.2.2,0,0,0,16,17.5Z" style="fill:#d42d41"/><path d="M15,17.5h-.11a.2.2,0,0,0-.2.2.2.2,0,0,0,.2.21H15a.2.2,0,0,0,.2-.21A.2.2,0,0,0,15,17.5Z" style="fill:#d42d41"/><path d="M22.7,14H21.18a.21.21,0,0,0-.21.21.2.2,0,0,0,.21.2h1.31v8h-8V17.7a.2.2,0,0,0-.21-.2H9.45V9.44H17.5v4.79h0a.2.2,0,0,0,.21.2h2.48a.2.2,0,0,0,.2-.2.2.2,0,0,0-.2-.21H17.91V9.24a.2.2,0,0,0-.2-.2H9.24a.2.2,0,0,0-.2.2V17.7a.2.2,0,0,0,.2.21H14V22.7a.2.2,0,0,0,.2.2H22.7a.2.2,0,0,0,.2-.2V14.24A.2.2,0,0,0,22.7,14Z" style="fill:#384c58"/><path d="M14.23,16.75a.2.2,0,0,0-.2.2v.11a.2.2,0,0,0,.2.2.2.2,0,0,0,.21-.2V17A.2.2,0,0,0,14.23,16.75Z" style="fill:#d42d41"/><path d="M14.23,15.8a.2.2,0,0,0-.2.2v.24a.2.2,0,0,0,.2.2.2.2,0,0,0,.21-.2V16A.2.2,0,0,0,14.23,15.8Z" style="fill:#d42d41"/><path d="M14.23,14.85a.2.2,0,0,0-.2.21v.23a.2.2,0,0,0,.2.21.21.21,0,0,0,.21-.21v-.23A.21.21,0,0,0,14.23,14.85Z" style="fill:#d42d41"/><path d="M14.34,14h-.11a.2.2,0,0,0-.2.21v.1a.2.2,0,0,0,.2.21.2.2,0,0,0,.19-.13.21.21,0,0,0,.13-.18A.21.21,0,0,0,14.34,14Z" style="fill:#d42d41"/><path d="M16.24,14H16a.2.2,0,0,0-.2.21.2.2,0,0,0,.2.2h.24a.21.21,0,1,0,0-.41Z" style="fill:#d42d41"/><path d="M15.29,14h-.24a.2.2,0,0,0-.2.21.2.2,0,0,0,.2.2h.24a.21.21,0,1,0,0-.41Z" style="fill:#d42d41"/><path d="M17.06,14H17a.2.2,0,0,0-.2.21.2.2,0,0,0,.2.2h.11a.2.2,0,0,0,.21-.2A.21.21,0,0,0,17.06,14Z" style="fill:#d42d41"/></g></g></g></svg>