<svg xmlns:xlink="http://www.w3.org/1999/xlink" xmlns="http://www.w3.org/2000/svg" viewBox="0 0 31.94 31.94" width="145"  height="145" ><g id="e02e43f5-03dc-4caa-8035-d91359d87150" data-name="Layer 2"><g id="b55af351-0ec1-48a9-ba49-335f52fb1e41" data-name="Layer 1"><g id="bb2c0b18-59bb-42cc-b1c6-d1b36fd9ac6a" data-name="Corporate law"><circle cx="15.97" cy="15.97" r="15.97" style="fill:#d12d41;opacity:0.1"/><path d="M18,23.26a1.06,1.06,0,0,0-.83-.42h-.42V16a.77.77,0,0,0-.52-.73v-5l5.17.94.18,0A1.13,1.13,0,0,0,22.2,11l.77-.59A.23.23,0,0,0,23,10a.24.24,0,0,0-.34,0l-.78.58a.53.53,0,0,1-.42.1l-5.26-1V9.06a.79.79,0,0,0,.52-.74.77.77,0,1,0-1.54,0,.79.79,0,0,0,.52.74V9.7l-5.26,1a.53.53,0,0,1-.42-.1L9.26,10a.25.25,0,0,0-.3.39l.78.59a1.08,1.08,0,0,0,.63.21l.18,0,5.17-.94v5a.77.77,0,0,0-.52.73v6.87h-.42a1.06,1.06,0,0,0-.83.42L13.4,24a.21.21,0,0,0,0,.25.23.23,0,0,0,.22.14h4.74a.23.23,0,0,0,.22-.14.21.21,0,0,0,0-.25ZM16,8a.29.29,0,0,1,.28.28A.28.28,0,0,1,16,8.6a.27.27,0,0,1-.28-.28A.28.28,0,0,1,16,8ZM15.69,16a.27.27,0,0,1,.28-.28.28.28,0,0,1,.28.28v6.87h-.56Zm-1.6,7.93.26-.35a.55.55,0,0,1,.43-.21h2.38a.55.55,0,0,1,.43.21l.26.35Z" style="fill:#384c58"/><path d="M12.54,16.78H8.18l2-4.19,1.65,3.48a.24.24,0,0,0,.33.12.25.25,0,0,0,.11-.33l-1.87-3.95a.24.24,0,0,0-.22-.14.25.25,0,0,0-.23.14l-2.37,5h0a.23.23,0,0,0,0,.18L8,18.32a.76.76,0,0,0,.73.53h2.93a.77.77,0,0,0,.74-.53l.4-1.22a.22.22,0,0,0,0-.22.26.26,0,0,0-.2-.1Zm-.64,1.39a.29.29,0,0,1-.27.19H8.7a.27.27,0,0,1-.26-.19l-.3-.9H12.2Z" style="fill:#d42d41"/><path d="M24.34,16.88a.25.25,0,0,0-.2-.1H19.79l2-4.19,1.65,3.48a.24.24,0,0,0,.33.12.25.25,0,0,0,.12-.33L22,11.91a.23.23,0,0,0-.22-.14.24.24,0,0,0-.22.14l-2.38,5h0a.28.28,0,0,0,0,.18l.41,1.22a.77.77,0,0,0,.74.53h2.93a.76.76,0,0,0,.73-.53l.41-1.22a.25.25,0,0,0,0-.22Zm-.84,1.29a.28.28,0,0,1-.26.19H20.31a.28.28,0,0,1-.27-.19l-.3-.9H23.8Z" style="fill:#d42d41"/></g></g></g></svg>